<?xml version="1.0" encoding="UTF-8" standalone="no"?>
<svg
   id="svg10"
   xml:space="preserve"
   enable-background="new 0 0 1000 1000"
   viewBox="0 0 1000 1000"
   y="0px"
   x="0px"
   version="1.1"
   xmlns="http://www.w3.org/2000/svg"
   xmlns:svg="http://www.w3.org/2000/svg"
   xmlns:rdf="http://www.w3.org/1999/02/22-rdf-syntax-ns#"
   xmlns:cc="http://creativecommons.org/ns#"
   xmlns:dc="http://purl.org/dc/elements/1.1/"><defs
   id="defs14" />
<metadata
   id="metadata2"> Svg Vector Icons : http://www.onlinewebfonts.com/icon <rdf:RDF><cc:Work
     rdf:about=""><dc:format>image/svg+xml</dc:format><dc:type
       rdf:resource="http://purl.org/dc/dcmitype/StillImage" /></cc:Work></rdf:RDF></metadata>
<g
   transform="translate(0,40.683635)"
   id="g8"><path
     style="fill:#ffffff"
     id="path4"
     d="M 980.3,255.3 C 958.6,301 863.2,521.5 850.2,541.9 c -1.5,2.4 -2.9,4.8 -4.2,7.1 -12.7,21.7 -26.1,38.4 -72.3,38.4 H 332.8 c 9.2,28.1 28.5,62.7 68.5,62.7 h 404.24293 c 11.3,0 20.4,9.2 20.4,20.4 0,11.3 -9.1,20.4 -20.4,20.4 H 401.3 c -56.6,0 -98,-44.3 -113.4,-112.3 -8.5,-37.5 -111.8,-383.1 -119.2,-410.2 -7.9,-17.2 -26.4,-29.6 -44.3,-29.6 h -94 C 19.1,138.8 10,129.6 10,118.4 10,107.2 19.2,98 30.4,98 h 94 c 35,0 68.1,1.9 82.4,35.1 0.4,0.9 0.7,1.8 0.9,2.7 4.1,14.8 89.7,318.5 114.1,410.7 h 451.8 c 26.5,0 29.1,-4.6 37,-18.1 1.6,-2.7 3.2,-5.5 5.1,-8.4 12.1,-19 106.9,-238.2 127.1,-280.8 8.4,-22 6.9,-34 4.6,-37.4 -1.5,-2.2 -6.4,-3.5 -13.1,-3.5 -44.2,0.7 -605.4,0 -624.9,0 -11.3,0 -20.4,-9.2 -20.4,-20.5 0,-11.3 9.1,-20.4 20.4,-20.4 v 0 c 4.8,0 580.3,0.7 624.5,0 26.9,0 40.4,11.5 47.1,21.2 12.2,17.8 12,43.6 -0.7,76.7 z" /><path
     style="fill:#ffffff;stroke-width:0.825211"
     id="path6"
     d="m 735.39238,663.1 c 43.40608,0 78.80762,35.31902 78.80762,78.80762 0,43.48861 -35.31902,78.72511 -78.80762,78.72511 -43.48861,0 -78.72511,-35.31902 -78.72511,-78.80763 0,-43.4886 35.31902,-78.7251 78.72511,-78.7251 z m 0,125.18447 c 25.58153,0 46.37684,-20.79531 46.37684,-46.37685 0,-25.58153 -20.79531,-46.37684 -46.37684,-46.37684 -25.58154,0 -46.37685,20.79531 -46.37685,46.37684 0,25.58154 20.87783,46.37685 46.37685,46.37685 z" /><path
     d="m 407.42801,663.1 c 43.40608,0 78.80762,35.31902 78.80762,78.80762 0,43.48861 -35.31902,78.72511 -78.80762,78.72511 -43.48861,0 -78.72511,-35.31902 -78.72511,-78.80763 0,-43.4886 35.31902,-78.7251 78.72511,-78.7251 z m 0,125.18447 c 25.58153,0 46.37684,-20.79531 46.37684,-46.37685 0,-25.58153 -20.79531,-46.37684 -46.37684,-46.37684 -25.58154,0 -46.37685,20.79531 -46.37685,46.37684 0,25.58154 20.87783,46.37685 46.37685,46.37685 z"
     id="path30"
     style="fill:#ffffff;stroke-width:0.825211" /></g>
<g
   id="layer1" /><path
   d="M 526.48633,290.04297 V 327 h -18.1914 v 20.14062 h -20.24805 v 38.06054 H 470 l 0.1914,76.88087 h 18.04688 v 37.96093 c -0.17177,0 20.24805,0 20.24805,0 l 0.1914,19.64063 h 18 v 19 l 115.8086,0.35937 0.1914,-19.35936 18.8086,0.35936 v -20 h 19 v -37 h 19 v -59.99999 h -19 v -38 h -19 V 327 l -20,0.043 V 290 h -19.09375 -37.38281 z"
   style="fill:#ffffff;fill-rule:evenodd;stroke-width:0.706156"
   id="rect33" /></svg>
