<?xml version="1.0" encoding="UTF-8" standalone="no"?>
<!-- Generator: Adobe Illustrator 24.3.0, SVG Export Plug-In . SVG Version: 6.00 Build 0)  -->

<svg
   version="1.1"
   id="Layer_1"
   x="0px"
   y="0px"
   viewBox="0 0 39.599998 16"
   xml:space="preserve"
   width="39.599998"
   height="16"
   xmlns="http://www.w3.org/2000/svg"
   xmlns:svg="http://www.w3.org/2000/svg"><defs
   id="defs199" />
<style
   type="text/css"
   id="style176">
	.st1{fill:#FFFFFF;}
</style>

<g
   id="g448"
   transform="translate(-116,-11)"><path
     class="st1"
     d="m 141.5,26.4 v -3 c 0.4,0.3 0.9,0.7 1.9,0.7 1.9,0 3.6,-1.5 3.6,-4.9 0,-3.1 -1.7,-4.8 -3.6,-4.8 -1,0 -1.7,0.5 -2.1,0.9 l -0.1,-0.6 h -2.3 V 27 Z m 1.2,-9.7 c 1,0 1.6,1.1 1.6,2.5 0,1.5 -0.6,2.5 -1.6,2.5 -0.6,0 -1,-0.2 -1.3,-0.5 v -4 c 0.4,-0.2 0.7,-0.5 1.3,-0.5 z"
     id="path182" /><path
     class="st1"
     d="m 152.1,24.2 c 1.3,0 2.2,-0.3 3,-0.7 v -2.2 c -0.7,0.4 -1.5,0.6 -2.6,0.6 -1.1,0 -1.9,-0.4 -2.1,-1.7 h 5.2 c 0,-0.2 0,-0.7 0,-1 0,-2.8 -1.3,-4.9 -3.8,-4.9 -2.5,0 -4.1,2.2 -4.1,4.9 0,3.3 1.8,5 4.4,5 z m -0.3,-7.7 c 0.6,0 1.3,0.5 1.3,1.7 h -2.8 c 0.1,-1.1 0.8,-1.7 1.5,-1.7 z"
     id="path184" /><path
     class="st1"
     d="m 132,17.5 c 0.6,-0.9 1.7,-0.7 2,-0.6 v -2.5 c -0.4,-0.1 -1.6,-0.4 -2.1,0.8 l -0.2,-0.8 h -2.3 v 9.4 h 2.6 z"
     id="path186" /><path
     class="st1"
     d="m 120,21.2 c 0,0.5 -0.4,0.6 -1,0.6 -0.9,0 -2,-0.4 -2.9,-0.9 v 2.6 c 1,0.4 2,0.6 2.9,0.6 2.2,0 3.7,-1.1 3.7,-3 0,-3.2 -4,-2.6 -4,-3.8 0,-0.4 0.3,-0.6 0.9,-0.6 0.8,0 1.8,0.2 2.6,0.7 v -2.6 c -0.9,-0.4 -1.7,-0.5 -2.6,-0.5 -2.1,0 -3.6,1.1 -3.6,3 0,3.1 4,2.6 4,3.9 z"
     id="path188" /><path
     class="st1"
     d="m 126.4,24.2 c 0.8,0 1.5,-0.2 1.9,-0.4 v -2.2 c -0.3,0.1 -2,0.6 -2,-1 v -3.8 h 2 v -2.3 h -2 v -2.3 l -2.6,0.6 v 8.6 c 0,1.6 1.1,2.8 2.7,2.8 z"
     id="path190" /><path
     class="st1"
     d="m 134.9,11.6 v 2.1 l 2.7,-0.5 V 11 Z"
     id="path192" /><path
     class="st1"
     d="m 137.5,14.5 h -2.6 v 9.3 h 2.6 z"
     id="path194" /></g>
</svg>
